<svg xmlns="http://www.w3.org/2000/svg" xmlns:xlink="http://www.w3.org/1999/xlink" width="20" height="20" viewBox="0 0 20 20">
  <defs>
    <linearGradient id="linear-gradient" x1="0.786" y1="0.173" x2="0.188" y2="0.916" gradientUnits="objectBoundingBox">
      <stop offset="0" stop-color="#6468e7"/>
      <stop offset="1" stop-color="#8a55fe"/>
    </linearGradient>
  </defs>
  <g id="导出图片_-_渐变底logo" data-name="导出图片 - 渐变底logo" transform="translate(0 0.238)">
    <path id="减去_109" data-name="减去 109" d="M-408-1646.239h-8a6.007,6.007,0,0,1-6-6v-8a6.007,6.007,0,0,1,6-6h8a6.007,6.007,0,0,1,6,6v8A6.006,6.006,0,0,1-408-1646.239Zm-5.855-13.567a5.165,5.165,0,0,0-3.128,1.048,4.719,4.719,0,0,0-1.732,2.622l-.846.317a.66.66,0,0,0-.439.615v.585a.66.66,0,0,0,.439.615l.913.343a4.975,4.975,0,0,0,4.793,3.424h3.71a4.976,4.976,0,0,0,4.793-3.424l.913-.343a.66.66,0,0,0,.439-.615v-.585a.66.66,0,0,0-.439-.615l-.846-.317a4.714,4.714,0,0,0-1.732-2.622,5.165,5.165,0,0,0-3.128-1.048h-.724a.475.475,0,0,1-.461-.507.727.727,0,0,1,.143-.423,1.346,1.346,0,0,0,.642-1.135,1.415,1.415,0,0,0-1.454-1.368,1.415,1.415,0,0,0-1.454,1.368,1.371,1.371,0,0,0,.855,1.247.559.559,0,0,1,.1.311c0,.322-.146.492-.429.507Zm3.962,8.29h-4.214a3.565,3.565,0,0,1-3.56-3.561,3.564,3.564,0,0,1,3.56-3.56h4.214a3.565,3.565,0,0,1,3.561,3.56A3.565,3.565,0,0,1-409.893-1651.515Zm-.107-5.224a.546.546,0,0,0-.545.545v2.33a.546.546,0,0,0,.545.545.546.546,0,0,0,.545-.545v-2.33A.546.546,0,0,0-410-1656.739Zm-4.363.343a.546.546,0,0,0-.545.545v1.646a.546.546,0,0,0,.545.545.546.546,0,0,0,.545-.545v-1.646A.546.546,0,0,0-414.364-1656.4Zm2.182.342a.546.546,0,0,0-.545.545v.961a.547.547,0,0,0,.545.546.547.547,0,0,0,.545-.546v-.961A.546.546,0,0,0-412.182-1656.054Z" transform="translate(422 1666)" fill="url(#linear-gradient)"/>
  </g>
</svg>
